# xmcd CD database file
#
# Track frame offsets:
#	150
#	15007
#	31755
#	46422
#	63105
#	86260
#	98075
#	119972
#	137167
#	157320
#	169170
#	189862
#	211070
#	231062
#	259787
#	263247
#	286160
#	304052
#	310210
#	332135
#
# Disc length: 4729 seconds
#
# Revision: 0
# Processed by: cddbd v1.4PL0 Copyright (c) Steve Scherf et al.
# Submitted via: CDex 1.40Release
#
DISCID=0b127714
DTITLE=Roland Kirk - Domino 1-10 - I Talk To The Spirits 10-20
DYEAR=1900
DGENRE=Blues
TTITLE0=Domino
TTITLE1=Meeting On Termini's Corner
TTITLE2=Time
TTITLE3=Lament
TTITLE4=A Stritch In Time
TTITLE5=3-In-1 Without The Oil
TTITLE6=Get Out Of Town
TTITLE7=Rolando
TTITLE8=I Believe In You
TTITLE9=E.D.
TTITLE10=Serenade To A Cuckoo
TTITLE11=Medley
TTITLE12=A Quote From Clifford Brown
TTITLE13=Trees
TTITLE14=Fugue'n and Alludin'
TTITLE15=The Business Ain't Nothin' But The Blues
TTITLE16=I Talk With The Spirits
TTITLE17=Ruined Castles
TTITLE18=Django
TTITLE19=My Ship (from "Lady In The Dark")
EXTD=ID3G: 0
EXTT0=
EXTT1=
EXTT2=
EXTT3=
EXTT4=
EXTT5=
EXTT6=
EXTT7=
EXTT8=
EXTT9=
EXTT10=
EXTT11=
EXTT12=
EXTT13=
EXTT14=
EXTT15=
EXTT16=
EXTT17=
EXTT18=
EXTT19=
PLAYORDER=
